<svg width="207" height="52" viewBox="0 0 207 52" fill="none" xmlns="http://www.w3.org/2000/svg">
<path d="M66.395 43L56.7 18.395H61.845L69.335 38.31H67.34L74.9 18.395H79.975L70.175 43H66.395ZM82.7077 43V26.095H87.3277V43H82.7077ZM85.0177 23.365C84.2711 23.365 83.6527 23.12 83.1627 22.63C82.6727 22.1167 82.4277 21.4867 82.4277 20.74C82.4277 20.0167 82.6727 19.3983 83.1627 18.885C83.6527 18.3717 84.2711 18.115 85.0177 18.115C85.7877 18.115 86.4061 18.3717 86.8727 18.885C87.3627 19.3983 87.6077 20.0167 87.6077 20.74C87.6077 21.4867 87.3627 22.1167 86.8727 22.63C86.4061 23.12 85.7877 23.365 85.0177 23.365ZM97.1994 43.385C96.2427 43.385 95.2977 43.2567 94.3644 43C93.4544 42.7433 92.6144 42.3933 91.8444 41.95C91.0744 41.4833 90.4094 40.9233 89.8494 40.27L92.5794 37.505C93.1627 38.1583 93.8394 38.6483 94.6094 38.975C95.3794 39.3017 96.231 39.465 97.1644 39.465C97.911 39.465 98.471 39.36 98.8444 39.15C99.241 38.94 99.4394 38.625 99.4394 38.205C99.4394 37.7383 99.2294 37.3767 98.8094 37.12C98.4127 36.8633 97.8877 36.6533 97.2344 36.49C96.581 36.3033 95.8927 36.105 95.1694 35.895C94.4694 35.6617 93.7927 35.37 93.1394 35.02C92.486 34.6467 91.9494 34.145 91.5294 33.515C91.1327 32.8617 90.9344 32.0217 90.9344 30.995C90.9344 29.9217 91.191 28.9883 91.7044 28.195C92.241 27.4017 92.9994 26.7833 93.9794 26.34C94.9594 25.8967 96.1144 25.675 97.4444 25.675C98.8444 25.675 100.104 25.92 101.224 26.41C102.368 26.9 103.313 27.635 104.059 28.615L101.294 31.38C100.781 30.75 100.198 30.295 99.5444 30.015C98.9144 29.735 98.226 29.595 97.4794 29.595C96.8027 29.595 96.2777 29.7 95.9044 29.91C95.5544 30.12 95.3794 30.4117 95.3794 30.785C95.3794 31.205 95.5777 31.5317 95.9744 31.765C96.3944 31.9983 96.931 32.2083 97.5844 32.395C98.2377 32.5583 98.9144 32.7567 99.6144 32.99C100.338 33.2 101.014 33.5033 101.644 33.9C102.298 34.2967 102.823 34.8217 103.219 35.475C103.639 36.1283 103.849 36.9683 103.849 37.995C103.849 39.6517 103.254 40.97 102.064 41.95C100.874 42.9067 99.2527 43.385 97.1994 43.385ZM112.751 43.385C111.794 43.385 110.849 43.2567 109.916 43C109.006 42.7433 108.166 42.3933 107.396 41.95C106.626 41.4833 105.961 40.9233 105.401 40.27L108.131 37.505C108.714 38.1583 109.391 38.6483 110.161 38.975C110.931 39.3017 111.783 39.465 112.716 39.465C113.463 39.465 114.023 39.36 114.396 39.15C114.793 38.94 114.991 38.625 114.991 38.205C114.991 37.7383 114.781 37.3767 114.361 37.12C113.964 36.8633 113.439 36.6533 112.786 36.49C112.133 36.3033 111.444 36.105 110.721 35.895C110.021 35.6617 109.344 35.37 108.691 35.02C108.038 34.6467 107.501 34.145 107.081 33.515C106.684 32.8617 106.486 32.0217 106.486 30.995C106.486 29.9217 106.743 28.9883 107.256 28.195C107.793 27.4017 108.551 26.7833 109.531 26.34C110.511 25.8967 111.666 25.675 112.996 25.675C114.396 25.675 115.656 25.92 116.776 26.41C117.919 26.9 118.864 27.635 119.611 28.615L116.846 31.38C116.333 30.75 115.749 30.295 115.096 30.015C114.466 29.735 113.778 29.595 113.031 29.595C112.354 29.595 111.829 29.7 111.456 29.91C111.106 30.12 110.931 30.4117 110.931 30.785C110.931 31.205 111.129 31.5317 111.526 31.765C111.946 31.9983 112.483 32.2083 113.136 32.395C113.789 32.5583 114.466 32.7567 115.166 32.99C115.889 33.2 116.566 33.5033 117.196 33.9C117.849 34.2967 118.374 34.8217 118.771 35.475C119.191 36.1283 119.401 36.9683 119.401 37.995C119.401 39.6517 118.806 40.97 117.616 41.95C116.426 42.9067 114.804 43.385 112.751 43.385ZM130.123 43.35C128.14 43.35 126.436 43.0117 125.013 42.335C123.613 41.6583 122.341 40.6433 121.198 39.29L124.348 36.14C125.071 37.0967 125.911 37.8433 126.868 38.38C127.825 38.8933 128.991 39.15 130.368 39.15C131.605 39.15 132.585 38.905 133.308 38.415C134.055 37.925 134.428 37.2483 134.428 36.385C134.428 35.6383 134.218 35.0317 133.798 34.565C133.378 34.0983 132.818 33.7017 132.118 33.375C131.441 33.0483 130.683 32.7567 129.843 32.5C129.026 32.22 128.198 31.905 127.358 31.555C126.541 31.205 125.783 30.7733 125.083 30.26C124.406 29.7233 123.858 29.0467 123.438 28.23C123.018 27.39 122.808 26.34 122.808 25.08C122.808 23.5867 123.17 22.315 123.893 21.265C124.616 20.215 125.608 19.41 126.868 18.85C128.128 18.29 129.551 18.01 131.138 18.01C132.818 18.01 134.335 18.325 135.688 18.955C137.041 19.585 138.15 20.4017 139.013 21.405L135.863 24.555C135.14 23.7617 134.393 23.1783 133.623 22.805C132.876 22.4317 132.025 22.245 131.068 22.245C129.971 22.245 129.108 22.455 128.478 22.875C127.848 23.295 127.533 23.9017 127.533 24.695C127.533 25.3717 127.743 25.92 128.163 26.34C128.583 26.76 129.131 27.1217 129.808 27.425C130.508 27.7283 131.266 28.02 132.083 28.3C132.923 28.58 133.751 28.895 134.568 29.245C135.408 29.595 136.166 30.05 136.843 30.61C137.543 31.17 138.103 31.8933 138.523 32.78C138.943 33.6433 139.153 34.7167 139.153 36C139.153 38.2867 138.348 40.0833 136.738 41.39C135.128 42.6967 132.923 43.35 130.123 43.35ZM144.905 43V19.06H149.49V43H144.905ZM140.95 30.12V26.095H153.445V30.12H140.95ZM163.558 43.35C161.855 43.35 160.315 42.965 158.938 42.195C157.585 41.4017 156.5 40.34 155.683 39.01C154.89 37.6567 154.493 36.1517 154.493 34.495C154.493 32.8383 154.89 31.3567 155.683 30.05C156.476 28.72 157.561 27.67 158.938 26.9C160.315 26.1067 161.843 25.71 163.523 25.71C165.25 25.71 166.79 26.1067 168.143 26.9C169.52 27.67 170.605 28.72 171.398 30.05C172.191 31.3567 172.588 32.8383 172.588 34.495C172.588 36.1517 172.191 37.6567 171.398 39.01C170.605 40.34 169.52 41.4017 168.143 42.195C166.79 42.965 165.261 43.35 163.558 43.35ZM163.523 39.08C164.386 39.08 165.145 38.8933 165.798 38.52C166.475 38.1233 166.988 37.5867 167.338 36.91C167.711 36.21 167.898 35.4167 167.898 34.53C167.898 33.6433 167.711 32.8617 167.338 32.185C166.965 31.5083 166.451 30.9833 165.798 30.61C165.145 30.2133 164.386 30.015 163.523 30.015C162.683 30.015 161.936 30.2133 161.283 30.61C160.63 30.9833 160.116 31.5083 159.743 32.185C159.37 32.8617 159.183 33.6433 159.183 34.53C159.183 35.4167 159.37 36.21 159.743 36.91C160.116 37.5867 160.63 38.1233 161.283 38.52C161.936 38.8933 162.683 39.08 163.523 39.08ZM175.54 43V26.095H180.125V43H175.54ZM180.125 33.655L178.34 32.465C178.55 30.3883 179.156 28.755 180.16 27.565C181.163 26.3517 182.61 25.745 184.5 25.745C185.316 25.745 186.051 25.885 186.705 26.165C187.358 26.4217 187.953 26.8533 188.49 27.46L185.62 30.75C185.363 30.47 185.048 30.26 184.675 30.12C184.325 29.98 183.916 29.91 183.45 29.91C182.47 29.91 181.665 30.225 181.035 30.855C180.428 31.4617 180.125 32.395 180.125 33.655ZM197.707 43.35C195.933 43.35 194.358 42.9767 192.982 42.23C191.605 41.46 190.508 40.41 189.692 39.08C188.898 37.75 188.502 36.2333 188.502 34.53C188.502 32.85 188.887 31.3567 189.657 30.05C190.45 28.72 191.523 27.67 192.877 26.9C194.23 26.1067 195.735 25.71 197.392 25.71C199.025 25.71 200.46 26.0833 201.697 26.83C202.957 27.5533 203.937 28.5567 204.637 29.84C205.36 31.1 205.722 32.535 205.722 34.145C205.722 34.4483 205.698 34.7633 205.652 35.09C205.628 35.3933 205.57 35.7433 205.477 36.14L191.267 36.175V32.745L203.342 32.71L201.487 34.145C201.44 33.1417 201.253 32.3017 200.927 31.625C200.623 30.9483 200.168 30.435 199.562 30.085C198.978 29.7117 198.255 29.525 197.392 29.525C196.482 29.525 195.688 29.735 195.012 30.155C194.335 30.5517 193.81 31.1233 193.437 31.87C193.087 32.5933 192.912 33.4567 192.912 34.46C192.912 35.4867 193.098 36.385 193.472 37.155C193.868 37.9017 194.428 38.485 195.152 38.905C195.875 39.3017 196.715 39.5 197.672 39.5C198.535 39.5 199.317 39.36 200.017 39.08C200.717 38.7767 201.323 38.3333 201.837 37.75L204.532 40.445C203.715 41.4017 202.712 42.125 201.522 42.615C200.355 43.105 199.083 43.35 197.707 43.35Z" fill="#003868"/>
<g clip-path="url(#clip0_350_11)">
<path d="M33.2334 40.2971C33.2334 42.2737 31.6475 43.8596 29.6709 43.8596C27.6943 43.8596 26.0928 42.2737 26.0928 40.2971C26.0928 38.3206 27.7021 36.719 29.6709 36.719C31.6553 36.719 33.2334 38.3206 33.2334 40.2971ZM13.3975 36.719C11.4209 36.719 9.83496 38.3284 9.83496 40.2971C9.83496 42.2659 11.4209 43.8596 13.3975 43.8596C15.374 43.8596 16.9756 42.2737 16.9756 40.2971C16.9756 38.3206 15.374 36.719 13.3975 36.719ZM36.1865 15.6252C12.5771 15.6252 6.56152 14.6252 0.163086 7.87524C2.85059 11.9143 4.32715 19.5081 29.3115 19.1409C55.3506 18.7502 39.4678 25.8674 34.8428 33.8987C49.4287 20.8752 59.7959 15.6252 36.1865 15.6252Z" fill="#003868"/>
</g>
<defs>
<clipPath id="clip0_350_11">
<rect width="50" height="50" fill="white" transform="translate(0.163086 0.867432)"/>
</clipPath>
</defs>
</svg>
